# xmcd
#
# Track frame offsets:
#	150
#	17461
#	29628
#	43703
#	56145
#	70305
#	86583
#	98419
#	112598
#	129981
#
# Disc length: 1952 seconds
#
# Revision: 1
# Processed by: cddbd v1.5.1PL2 Copyright (c) Steve Scherf et al.
# Submitted via: EasyCDDAExtractor 9.0.0.1
#
DISCID=76079e0a
DTITLE=Ajattara - Äpäre
DYEAR=2006
DGENRE=Metal
TTITLE0=Hurmasta
TTITLE1=Raato
TTITLE2=Säälin Koira
TTITLE3=Lautuma
TTITLE4=Eksyneet
TTITLE5=Hirsipuulintu
TTITLE6=Tahtomattaan Syntynyt
TTITLE7=Itse
TTITLE8=Koito
TTITLE9=Syntyni
EXTD=
EXTT0=
EXTT1=
EXTT2=
EXTT3=
EXTT4=
EXTT5=
EXTT6=
EXTT7=
EXTT8=
EXTT9=
PLAYORDER=
